<svg version="1.1" viewBox="0.0 0.0 223.04724409448818 199.16010498687663" fill="none" stroke="none" stroke-linecap="square" stroke-miterlimit="10" xmlns:xlink="http://www.w3.org/1999/xlink" xmlns="http://www.w3.org/2000/svg"><clipPath id="p.0"><path d="m0 0l223.04724 0l0 199.16011l-223.04724 0l0 -199.16011z" clip-rule="nonzero"/></clipPath><g clip-path="url(#p.0)"><path fill="#000000" fill-opacity="0.0" d="m0 0l223.04724 0l0 199.16011l-223.04724 0z" fill-rule="evenodd"/><path fill="#e2b714" d="m78.32574 33.49475l-63.62495 63.911263l66.741325 68.761314l17.796913 -15.867645l-58.286575 -52.452965l62.29036 -62.14845z" fill-rule="evenodd"/><path stroke="#000000" stroke-width="1.0" stroke-linejoin="round" stroke-linecap="butt" d="m78.32574 33.49475l-63.62495 63.911263l66.741325 68.761314l17.796913 -15.867645l-58.286575 -52.452965l62.29036 -62.14845z" fill-rule="evenodd"/><path fill="#e2b714" d="m97.01615 62.144844l0.88972473 15.867638l93.43554 1.322113l-0.88972473 -16.749046z" fill-rule="evenodd"/><path stroke="#000000" stroke-width="1.0" stroke-linejoin="round" stroke-linecap="butt" d="m97.01615 62.144844l0.88972473 15.867638l93.43554 1.322113l-0.88972473 -16.749046z" fill-rule="evenodd"/><path fill="#e2b714" d="m99.24051 87.26704l0.88973236 15.867638l95.21499 0.44070435l-2.2243195 -14.986229z" fill-rule="evenodd"/><path stroke="#000000" stroke-width="1.0" stroke-linejoin="round" stroke-linecap="butt" d="m99.24051 87.26704l0.88973236 15.867638l95.21499 0.44070435l-2.2243195 -14.986229z" fill-rule="evenodd"/><path fill="#e2b714" d="m101.020004 113.71363l1.3345947 16.749046l93.43553 0.44070435l-0.44487 -14.545525z" fill-rule="evenodd"/><path stroke="#000000" stroke-width="1.0" stroke-linejoin="round" stroke-linecap="butt" d="m101.020004 113.71363l1.3345947 16.749046l93.43553 0.44070435l-0.44487 -14.545525z" fill-rule="evenodd"/></g></svg>